<?xml version="1.0" standalone="no"?>
<!DOCTYPE svg PUBLIC "-//W3C//DTD SVG 20010904//EN"
 "http://www.w3.org/TR/2001/REC-SVG-20010904/DTD/svg10.dtd">
<svg version="1.0" xmlns="http://www.w3.org/2000/svg"
 width="697.000000pt" height="638.000000pt" viewBox="0 0 697.000000 638.000000"
 preserveAspectRatio="xMidYMid meet">

<g transform="translate(0.000000,638.000000) scale(0.100000,-0.100000)"
fill="#000000" stroke="none">
<path d="M81 6362 c-66 -35 -90 -125 -51 -189 39 -64 33 -63 525 -119 132 -15
244 -30 248 -34 6 -6 191 -604 217 -705 25 -96 102 -353 110 -367 6 -10 10
-23 10 -30 0 -12 129 -448 337 -1143 58 -192 114 -381 124 -420 11 -38 33
-113 49 -165 16 -52 41 -133 54 -180 115 -388 206 -695 331 -1115 80 -269 154
-520 165 -556 24 -82 66 -123 131 -132 75 -10 3371 -7 3410 4 105 27 138 158
58 235 l-30 29 -1661 5 -1661 5 -64 214 c-35 118 -61 216 -59 219 3 2 76 11
163 18 423 37 3168 268 3368 284 77 6 156 15 176 20 78 21 80 26 190 363 56
172 132 404 169 517 37 113 141 428 230 700 89 272 203 619 253 770 100 302
107 344 68 397 -25 34 -52 49 -103 57 -31 6 -1141 111 -1858 176 -179 16 -368
34 -420 40 -52 5 -131 12 -175 16 -44 3 -93 8 -110 10 -47 5 -357 33 -490 44
-66 5 -160 14 -210 20 -176 19 -297 31 -825 80 -294 28 -726 68 -960 90 -234
22 -455 43 -492 46 -38 4 -68 8 -68 10 0 16 -185 625 -196 646 -21 40 -53 58
-126 69 -88 13 -741 89 -770 89 -13 0 -39 -8 -57 -18z m1594 -1101 c66 -6 166
-15 223 -21 56 -5 147 -14 202 -20 55 -5 146 -15 203 -20 56 -6 154 -15 217
-20 147 -12 307 -27 438 -40 56 -5 148 -15 205 -20 139 -14 299 -29 437 -40
63 -5 153 -14 200 -20 47 -6 137 -15 200 -20 63 -5 162 -14 220 -20 58 -6 166
-15 240 -20 74 -5 178 -14 230 -20 129 -14 274 -29 400 -40 58 -5 148 -14 200
-20 52 -6 151 -15 220 -20 69 -5 163 -14 210 -20 47 -6 137 -15 200 -20 63 -5
162 -14 220 -20 161 -16 316 -30 408 -36 71 -5 82 -9 82 -25 0 -10 -40 -141
-89 -291 -50 -150 -98 -300 -107 -333 -10 -33 -25 -78 -35 -100 -10 -22 -23
-60 -29 -85 -7 -25 -45 -145 -86 -268 -41 -122 -74 -228 -74 -235 0 -6 -6 -23
-13 -37 -7 -14 -19 -45 -26 -70 -7 -25 -17 -53 -22 -62 -5 -10 -9 -27 -9 -37
0 -11 -4 -22 -9 -25 -5 -4 -12 -28 -16 -55 -4 -27 -17 -70 -31 -97 -13 -26
-24 -55 -24 -65 0 -10 -4 -21 -10 -24 -5 -3 -10 -16 -10 -29 0 -12 -4 -26 -8
-32 -5 -5 -15 -36 -22 -69 -7 -33 -16 -64 -20 -70 -3 -5 -12 -30 -19 -55 -7
-25 -17 -53 -22 -62 -5 -10 -9 -27 -9 -37 0 -11 -4 -23 -10 -26 -5 -3 -10 -14
-10 -24 0 -24 -26 -75 -47 -92 -10 -9 -60 -17 -142 -21 -148 -9 -324 -23 -471
-38 -58 -6 -166 -15 -240 -20 -145 -10 -306 -23 -490 -40 -63 -6 -171 -15
-240 -20 -69 -5 -172 -14 -230 -20 -131 -13 -304 -28 -480 -40 -74 -5 -182
-14 -240 -20 -58 -6 -158 -15 -222 -20 -206 -17 -360 -30 -478 -40 -63 -6
-176 -13 -251 -16 -115 -5 -138 -3 -151 10 -9 8 -28 55 -42 103 -15 49 -42
138 -61 198 -31 100 -44 144 -92 315 -9 30 -24 73 -34 96 -11 22 -19 50 -19
63 0 12 -11 56 -24 99 -14 42 -36 118 -51 167 -14 50 -35 118 -46 151 -10 34
-19 70 -19 81 0 10 -4 23 -9 29 -5 5 -21 52 -34 104 -14 52 -39 138 -56 190
-16 52 -39 129 -51 170 -12 41 -34 118 -50 170 -16 52 -40 136 -55 185 -14 50
-41 140 -60 200 -59 191 -93 308 -114 385 -11 41 -31 113 -46 160 -46 151 -55
182 -55 192 0 11 155 6 355 -11z"/>
<path d="M3950 4684 c-429 -53 -770 -359 -866 -779 -25 -109 -25 -311 0 -420
88 -382 380 -675 761 -761 109 -25 311 -25 420 0 381 86 673 379 761 761 25
109 25 311 0 420 -86 376 -371 666 -741 756 -78 19 -265 31 -335 23z m305
-164 c151 -35 284 -110 399 -226 165 -164 248 -365 248 -599 0 -234 -83 -435
-248 -599 -165 -166 -365 -249 -599 -249 -234 0 -434 83 -599 249 -165 164
-248 365 -248 599 0 234 83 435 248 599 213 214 500 295 799 226z"/>
<path d="M3756 4219 c-117 -43 -255 -126 -310 -188 -20 -22 -20 -22 28 -70
l48 -49 60 48 c68 55 167 109 244 134 l52 17 -15 57 c-22 86 -18 84 -107 51z"/>
<path d="M4255 4192 c-9 -31 -18 -62 -20 -69 -2 -7 18 -19 48 -29 78 -25 177
-79 245 -134 l60 -48 48 49 c48 48 48 48 28 70 -55 62 -193 145 -312 189 l-82
30 -15 -58z"/>
<path d="M3775 3838 c-39 -35 -44 -86 -11 -125 15 -17 40 -34 56 -38 33 -7 84
15 100 44 48 90 -68 185 -145 119z"/>
<path d="M4209 3831 c-48 -48 -38 -116 22 -147 41 -21 82 -10 115 29 75 89
-54 200 -137 118z"/>
<path d="M3923 3455 c-77 -21 -142 -57 -203 -112 -48 -43 -110 -125 -110 -145
0 -4 27 -21 59 -37 l59 -30 39 52 c146 196 437 194 580 -4 l35 -49 59 30 c32
17 59 34 59 38 0 20 -62 102 -110 145 -96 87 -206 128 -340 126 -41 0 -99 -7
-127 -14z"/>
<path d="M2773 795 c-197 -61 -320 -268 -278 -466 43 -207 215 -339 425 -327
249 15 431 263 366 503 -37 140 -133 242 -270 288 -59 20 -183 21 -243 2z"/>
<path d="M5033 796 c-104 -34 -204 -123 -251 -224 -24 -51 -27 -69 -27 -167 0
-98 3 -116 27 -167 72 -155 226 -246 398 -236 287 17 462 319 338 585 -30 65
-120 153 -193 188 -51 25 -73 30 -155 32 -60 2 -110 -2 -137 -11z"/>
</g>
</svg>
