<svg xmlns="http://www.w3.org/2000/svg" xmlns:xlink="http://www.w3.org/1999/xlink" version="1.1" width="256" height="256" viewBox="0 0 256 256" xml:space="preserve">
<g style="stroke: none; stroke-width: 0; stroke-dasharray: none; stroke-linecap: butt; stroke-linejoin: miter; stroke-miterlimit: 10; fill: none; fill-rule: nonzero; opacity: 1;" transform="translate(1.4065934065934016 1.4065934065934016) scale(2.81 2.81)">
	<path d="M 86.181 3.998 H 6 L 3.542 59.62 c 0 2.109 2.887 4.903 4.997 4.903 l 9.334 0.283 l 2.076 15.308 L 33.21 67.098 h 52.97 c 2.109 0 3.819 -1.71 3.819 -3.819 V 7.817 C 90 5.708 88.29 3.998 86.181 3.998 z" style="stroke: none; stroke-width: 1; stroke-dasharray: none; stroke-linecap: butt; stroke-linejoin: miter; stroke-miterlimit: 10; fill: rgb(105,188,69); fill-rule: nonzero; opacity: 1;" transform=" matrix(1 0 0 1 0 0) " stroke-linecap="round"/>
	<path d="M 19.948 80.113 V 63.098 H 9.819 C 7.71 63.098 6 61.388 6 59.279 V 3.998 H 3.819 C 1.71 3.998 0 5.708 0 7.817 v 55.461 c 0 2.109 1.71 3.819 3.819 3.819 h 10.129 v 18.904 L 19.948 80.113 z" style="stroke: none; stroke-width: 1; stroke-dasharray: none; stroke-linecap: butt; stroke-linejoin: miter; stroke-miterlimit: 10; fill: rgb(85,159,52); fill-rule: nonzero; opacity: 1;" transform=" matrix(1 0 0 1 0 0) " stroke-linecap="round"/>
	<path d="M 43.485 41.546 c 0 -0.309 0 -0.557 0 -0.746 v -1.183 c 0 -1.886 0.238 -3.429 0.716 -4.629 c 0.477 -1.2 1.229 -2.168 2.256 -2.906 l 1.843 -1.08 c 1.88 -1.012 2.819 -2.16 2.819 -3.446 c 0 -0.96 -0.276 -1.736 -0.828 -2.327 c -0.554 -0.591 -1.302 -0.888 -2.247 -0.888 c -1.076 0 -1.901 0.377 -2.476 1.13 c -0.575 0.753 -0.862 1.832 -0.862 3.235 v 0.154 h -9.401 c 0 -1.968 0.313 -3.736 0.938 -5.303 c 0.625 -1.566 1.512 -2.922 2.661 -4.07 c 2.239 -2.191 5.329 -3.287 9.27 -3.287 c 3.737 0 6.736 1.007 8.997 3.021 c 2.262 2.013 3.393 4.674 3.393 7.981 c 0 1.199 -0.135 2.257 -0.403 3.174 c -0.269 0.917 -0.685 1.752 -1.251 2.506 c -0.652 0.874 -1.864 1.859 -3.634 2.956 l -1.632 1.028 c -0.754 0.531 -1.254 1.041 -1.501 1.529 c -0.247 0.489 -0.37 1.212 -0.37 2.172 v 0.488 v 0.515 L 43.485 41.546 z" style="stroke: none; stroke-width: 1; stroke-dasharray: none; stroke-linecap: butt; stroke-linejoin: miter; stroke-miterlimit: 10; fill: rgb(255,255,255); fill-rule: nonzero; opacity: 1;" transform=" matrix(1 0 0 1 0 0) " stroke-linecap="round"/>
	<rect x="43.48" y="45.55" rx="0" ry="0" width="8.32" height="7.34" style="stroke: none; stroke-width: 1; stroke-dasharray: none; stroke-linecap: butt; stroke-linejoin: miter; stroke-miterlimit: 10; fill: rgb(255,255,255); fill-rule: nonzero; opacity: 1;" transform=" matrix(1 0 0 1 0 0) "/>
</g>
</svg>