<svg xmlns="http://www.w3.org/2000/svg" xmlns:xlink="http://www.w3.org/1999/xlink" version="1.1" width="256" height="256" viewBox="0 0 256 256" xml:space="preserve">
<g style="stroke: none; stroke-width: 0; stroke-dasharray: none; stroke-linecap: butt; stroke-linejoin: miter; stroke-miterlimit: 10; fill: none; fill-rule: nonzero; opacity: 1;" transform="translate(1.4065934065934016 1.4065934065934016) scale(2.81 2.81)">
	<path d="M 89.026 46.265 l -7.829 -14.562 c -0.487 -0.907 -1.434 -1.472 -2.463 -1.472 H 68.269 v -3.19 c 0 -1.576 -1.278 -2.854 -2.854 -2.854 H 31.672 H 20.306 H 3.518 C 1.575 24.187 0 25.762 0 27.705 v 0.045 c 0 1.943 1.575 3.518 3.518 3.518 h 9.349 c 1.955 0 3.54 1.585 3.54 3.54 c 0 1.955 -1.585 3.54 -3.54 3.54 H 9.372 c -1.943 0 -3.518 1.575 -3.518 3.518 v 0.045 c 0 1.943 1.575 3.518 3.518 3.518 h 6.425 c 1.955 0 3.54 1.585 3.54 3.54 c 0 1.955 -1.585 3.54 -3.54 3.54 h -0.563 c -1.943 0 -3.518 1.575 -3.518 3.518 v 0.045 c 0 1.943 1.575 3.518 3.518 3.518 h 11.684 h 4.965 h 0.596 h 5.055 h 5.718 h 4.639 h 20.228 h 4.54 h 11.369 h 1.634 h 1.556 c 1.537 0 2.782 -1.246 2.782 -2.782 v -6.674 C 90 48.783 89.665 47.454 89.026 46.265 z" style="stroke: none; stroke-width: 1; stroke-dasharray: none; stroke-linecap: butt; stroke-linejoin: miter; stroke-miterlimit: 10; fill: rgb(217,52,55); fill-rule: nonzero; opacity: 1;" transform=" matrix(1 0 0 1 0 0) " stroke-linecap="round"/>
	<circle cx="77.613" cy="59.592999999999996" r="6.223" style="stroke: none; stroke-width: 1; stroke-dasharray: none; stroke-linecap: butt; stroke-linejoin: miter; stroke-miterlimit: 10; fill: rgb(189,27,29); fill-rule: nonzero; opacity: 1;" transform="  matrix(1 0 0 1 0 0) "/>
	<circle cx="77.608" cy="59.588" r="2.458" style="stroke: none; stroke-width: 1; stroke-dasharray: none; stroke-linecap: butt; stroke-linejoin: miter; stroke-miterlimit: 10; fill: rgb(255,255,255); fill-rule: nonzero; opacity: 1;" transform="  matrix(1 0 0 1 0 0) "/>
	<circle cx="37.563" cy="59.592999999999996" r="6.223" style="stroke: none; stroke-width: 1; stroke-dasharray: none; stroke-linecap: butt; stroke-linejoin: miter; stroke-miterlimit: 10; fill: rgb(189,27,29); fill-rule: nonzero; opacity: 1;" transform="  matrix(1 0 0 1 0 0) "/>
	<circle cx="37.568" cy="59.588" r="2.458" style="stroke: none; stroke-width: 1; stroke-dasharray: none; stroke-linecap: butt; stroke-linejoin: miter; stroke-miterlimit: 10; fill: rgb(255,255,255); fill-rule: nonzero; opacity: 1;" transform="  matrix(1 0 0 1 0 0) "/>
	<path d="M 77.805 34.744 h -5.762 c -1.179 0 -2.135 0.956 -2.135 2.135 v 5.897 c 0 1.179 0.956 2.135 2.135 2.135 h 9.074 c 1.515 0 2.482 -1.617 1.765 -2.952 l -3.312 -6.159 C 79.22 35.149 78.542 34.744 77.805 34.744 z" style="stroke: none; stroke-width: 1; stroke-dasharray: none; stroke-linecap: butt; stroke-linejoin: miter; stroke-miterlimit: 10; fill: rgb(255,255,255); fill-rule: nonzero; opacity: 1;" transform=" matrix(1 0 0 1 0 0) " stroke-linecap="round"/>
	<path d="M 24.667 42.646 V 29.883 h 7.515 v 2.301 h -4.786 v 2.625 h 4.786 v 2.319 h -4.786 v 5.519 H 24.667 z" style="stroke: none; stroke-width: 1; stroke-dasharray: none; stroke-linecap: butt; stroke-linejoin: miter; stroke-miterlimit: 10; fill: rgb(255,232,118); fill-rule: nonzero; opacity: 1;" transform=" matrix(1 0 0 1 0 0) " stroke-linecap="round"/>
	<path d="M 43.525 42.646 h -3.147 l -3.356 -5.963 v 5.963 h -2.729 V 29.883 h 3.906 c 1.552 0 2.714 0.301 3.487 0.902 s 1.16 1.507 1.16 2.715 c 0 0.878 -0.265 1.627 -0.793 2.25 s -1.212 0.985 -2.049 1.09 L 43.525 42.646 z M 37.021 35.323 h 0.41 c 1.104 0 1.833 -0.121 2.188 -0.362 s 0.532 -0.661 0.532 -1.26 c 0 -0.627 -0.19 -1.074 -0.571 -1.338 c -0.381 -0.264 -1.097 -0.396 -2.149 -0.396 h -0.41 V 35.323 z" style="stroke: none; stroke-width: 1; stroke-dasharray: none; stroke-linecap: butt; stroke-linejoin: miter; stroke-miterlimit: 10; fill: rgb(255,232,118); fill-rule: nonzero; opacity: 1;" transform=" matrix(1 0 0 1 0 0) " stroke-linecap="round"/>
	<path d="M 45.111 42.646 V 29.883 h 7.515 v 2.301 H 47.84 v 2.625 h 4.786 v 2.319 H 47.84 v 3.2 h 4.786 v 2.319 H 45.111 z" style="stroke: none; stroke-width: 1; stroke-dasharray: none; stroke-linecap: butt; stroke-linejoin: miter; stroke-miterlimit: 10; fill: rgb(255,232,118); fill-rule: nonzero; opacity: 1;" transform=" matrix(1 0 0 1 0 0) " stroke-linecap="round"/>
	<path d="M 55.303 42.646 V 29.883 h 7.515 v 2.301 h -4.786 v 2.625 h 4.786 v 2.319 h -4.786 v 3.2 h 4.786 v 2.319 H 55.303 z" style="stroke: none; stroke-width: 1; stroke-dasharray: none; stroke-linecap: butt; stroke-linejoin: miter; stroke-miterlimit: 10; fill: rgb(255,232,118); fill-rule: nonzero; opacity: 1;" transform=" matrix(1 0 0 1 0 0) " stroke-linecap="round"/>
	<path d="M 24.468 51.549 v -6.282 h 1.712 c 0.675 0 1.208 0.047 1.596 0.142 c 0.389 0.094 0.731 0.252 1.026 0.472 c 0.38 0.283 0.668 0.64 0.864 1.07 c 0.196 0.431 0.294 0.921 0.294 1.47 c 0 0.558 -0.1 1.052 -0.3 1.482 s -0.493 0.786 -0.879 1.066 c -0.286 0.206 -0.604 0.354 -0.955 0.444 c -0.35 0.09 -0.863 0.135 -1.538 0.135 h -0.476 H 24.468 z M 25.811 50.416 h 0.747 c 0.704 0 1.216 -0.16 1.538 -0.48 s 0.483 -0.828 0.483 -1.523 c 0 -0.692 -0.161 -1.199 -0.483 -1.521 c -0.322 -0.322 -0.834 -0.483 -1.538 -0.483 h -0.747 V 50.416 z" style="stroke: none; stroke-width: 1; stroke-dasharray: none; stroke-linecap: butt; stroke-linejoin: miter; stroke-miterlimit: 10; fill: rgb(255,232,118); fill-rule: nonzero; opacity: 1;" transform=" matrix(1 0 0 1 0 0) " stroke-linecap="round"/>
	<path d="M 31.084 51.549 v -6.282 h 3.699 V 46.4 h -2.355 v 1.291 h 2.355 v 1.142 h -2.355 v 1.574 h 2.355 v 1.142 H 31.084 z" style="stroke: none; stroke-width: 1; stroke-dasharray: none; stroke-linecap: butt; stroke-linejoin: miter; stroke-miterlimit: 10; fill: rgb(255,232,118); fill-rule: nonzero; opacity: 1;" transform=" matrix(1 0 0 1 0 0) " stroke-linecap="round"/>
	<path d="M 36.1 51.549 v -6.282 h 1.343 v 5.14 h 2.145 v 1.142 H 36.1 z" style="stroke: none; stroke-width: 1; stroke-dasharray: none; stroke-linecap: butt; stroke-linejoin: miter; stroke-miterlimit: 10; fill: rgb(255,232,118); fill-rule: nonzero; opacity: 1;" transform=" matrix(1 0 0 1 0 0) " stroke-linecap="round"/>
	<path d="M 40.46 51.549 v -6.282 h 1.343 v 6.282 H 40.46 z" style="stroke: none; stroke-width: 1; stroke-dasharray: none; stroke-linecap: butt; stroke-linejoin: miter; stroke-miterlimit: 10; fill: rgb(255,232,118); fill-rule: nonzero; opacity: 1;" transform=" matrix(1 0 0 1 0 0) " stroke-linecap="round"/>
	<path d="M 44.828 51.549 l -2.321 -6.282 h 1.485 l 1.223 3.917 c 0.023 0.08 0.059 0.229 0.107 0.446 c 0.048 0.218 0.1 0.465 0.154 0.742 c 0.037 -0.269 0.078 -0.508 0.123 -0.717 c 0.044 -0.208 0.088 -0.38 0.131 -0.515 l 1.24 -3.875 h 1.468 l -2.339 6.282 H 44.828 z" style="stroke: none; stroke-width: 1; stroke-dasharray: none; stroke-linecap: butt; stroke-linejoin: miter; stroke-miterlimit: 10; fill: rgb(255,232,118); fill-rule: nonzero; opacity: 1;" transform=" matrix(1 0 0 1 0 0) " stroke-linecap="round"/>
	<path d="M 49.114 51.549 v -6.282 h 3.698 V 46.4 h -2.355 v 1.291 h 2.355 v 1.142 h -2.355 v 1.574 h 2.355 v 1.142 H 49.114 z" style="stroke: none; stroke-width: 1; stroke-dasharray: none; stroke-linecap: butt; stroke-linejoin: miter; stroke-miterlimit: 10; fill: rgb(255,232,118); fill-rule: nonzero; opacity: 1;" transform=" matrix(1 0 0 1 0 0) " stroke-linecap="round"/>
	<path d="M 58.675 51.549 h -1.55 l -1.651 -2.935 v 2.935 h -1.343 v -6.282 h 1.922 c 0.764 0 1.336 0.148 1.717 0.444 c 0.38 0.297 0.57 0.742 0.57 1.337 c 0 0.432 -0.13 0.801 -0.391 1.107 c -0.261 0.306 -0.597 0.484 -1.008 0.536 L 58.675 51.549 z M 55.474 47.944 h 0.201 c 0.544 0 0.902 -0.06 1.077 -0.178 c 0.175 -0.119 0.262 -0.325 0.262 -0.62 c 0 -0.309 -0.094 -0.528 -0.281 -0.658 c -0.187 -0.131 -0.54 -0.195 -1.058 -0.195 h -0.201 V 47.944 z" style="stroke: none; stroke-width: 1; stroke-dasharray: none; stroke-linecap: butt; stroke-linejoin: miter; stroke-miterlimit: 10; fill: rgb(255,232,118); fill-rule: nonzero; opacity: 1;" transform=" matrix(1 0 0 1 0 0) " stroke-linecap="round"/>
	<path d="M 60.592 51.549 v -2.866 l -2.128 -3.416 h 1.574 l 0.932 1.72 c 0.046 0.086 0.093 0.195 0.142 0.326 c 0.049 0.132 0.099 0.283 0.15 0.455 c 0.04 -0.146 0.085 -0.283 0.135 -0.412 s 0.106 -0.254 0.17 -0.377 l 0.924 -1.712 h 1.573 l -2.129 3.416 v 2.866 H 60.592 z" style="stroke: none; stroke-width: 1; stroke-dasharray: none; stroke-linecap: butt; stroke-linejoin: miter; stroke-miterlimit: 10; fill: rgb(255,232,118); fill-rule: nonzero; opacity: 1;" transform=" matrix(1 0 0 1 0 0) " stroke-linecap="round"/>
</g>
</svg>